<svg width="2153" height="2592" viewBox="0 0 2153 2592" fill="none" xmlns="http://www.w3.org/2000/svg">
<g id="Happy" filter="url(#filter0_d_6_564)">
<g id="Body">
<g id="Body_2">
<g id="Arm Left">
<path d="M291.274 1322.39C333.29 1247.09 430.521 1151.02 430.521 1151.02L628 2203.89L613.791 2404.64C613.791 2404.64 592.647 2556.21 518.392 2580.32C423.087 2611.27 334.09 2401.8 334.09 2401.8C334.09 2401.8 227.09 2178.08 201.141 2023.74C171.987 1850.35 178.037 1745.97 213.045 1573.66C233.508 1472.95 241.197 1412.14 291.274 1322.39Z" fill="#D9D9D9"/>
<path d="M291.274 1322.39C333.29 1247.09 430.521 1151.02 430.521 1151.02L628 2203.89L613.791 2404.64C613.791 2404.64 592.647 2556.21 518.392 2580.32C423.087 2611.27 334.09 2401.8 334.09 2401.8C334.09 2401.8 227.09 2178.08 201.141 2023.74C171.987 1850.35 178.037 1745.97 213.045 1573.66C233.508 1472.95 241.197 1412.14 291.274 1322.39Z" fill="url(#paint0_radial_6_564)"/>
</g>
<g id="Ellipse 1">
<path fill-rule="evenodd" clip-rule="evenodd" d="M1601.05 379.534C1629.54 396.947 1655.99 416.421 1680.52 437.864L1645.22 409.37L1623.36 393.87L1601.05 379.534Z" fill="url(#paint1_radial_6_564)"/>
<path d="M1645.22 409.37L1680.52 437.864C1891.05 621.894 1960.04 950.922 1960.04 1366.26C1960.04 1408.16 1960.27 1449.12 1960.5 1489.1C1963.81 2070.95 1965.94 2443.76 1229.54 2443.76C520.535 2443.76 410.665 2042.05 417.538 1366.26C417.538 1149.96 432.165 957.066 474.375 795.87C488.11 743.419 504.766 694.324 524.789 648.87C628.627 413.147 823.023 275.37 1170.25 275.37C1349.05 275.37 1490.41 311.904 1601.05 379.534L1623.36 393.87L1645.22 409.37Z" fill="url(#paint2_radial_6_564)"/>
</g>
<g id="Vector 19">
<path d="M957.602 1523.49L963.736 1503.24C965.536 1497.3 973.608 1496.47 976.581 1501.92L986.068 1519.32C1011 1565.04 1017.12 1618.68 1003.11 1668.84L994.29 1700.46C992.482 1706.93 983.473 1707.38 981.027 1701.12L962.714 1654.22C946.402 1612.45 944.602 1566.41 957.602 1523.49Z" fill="#D9D9D9"/>
<path d="M957.602 1523.49L963.736 1503.24C965.536 1497.3 973.608 1496.47 976.581 1501.92L986.068 1519.32C1011 1565.04 1017.12 1618.68 1003.11 1668.84L994.29 1700.46C992.482 1706.93 983.473 1707.38 981.027 1701.12L962.714 1654.22C946.402 1612.45 944.602 1566.41 957.602 1523.49Z" fill="url(#paint3_radial_6_564)"/>
</g>
<g id="Vector 21">
<path d="M1161.02 1524.01L1167.15 1503.76C1168.95 1497.82 1177.02 1496.99 1180 1502.44L1189.48 1519.84C1214.42 1565.56 1220.53 1619.2 1206.53 1669.36L1197.71 1700.97C1195.9 1707.45 1186.89 1707.9 1184.44 1701.64L1166.13 1654.74C1149.82 1612.97 1148.02 1566.93 1161.02 1524.01Z" fill="#D9D9D9"/>
<path d="M1161.02 1524.01L1167.15 1503.76C1168.95 1497.82 1177.02 1496.99 1180 1502.44L1189.48 1519.84C1214.42 1565.56 1220.53 1619.2 1206.53 1669.36L1197.71 1700.97C1195.9 1707.45 1186.89 1707.9 1184.44 1701.64L1166.13 1654.74C1149.82 1612.97 1148.02 1566.93 1161.02 1524.01Z" fill="url(#paint4_radial_6_564)"/>
</g>
<path id="Vector 20" d="M716.856 1551.32L722.99 1531.07C724.79 1525.12 732.862 1524.29 735.835 1529.74L745.322 1547.14C770.255 1592.86 776.371 1646.51 762.368 1696.67L753.544 1728.28C751.736 1734.76 742.727 1735.21 740.281 1728.95L721.968 1682.05C705.656 1640.28 703.855 1594.23 716.856 1551.32Z" fill="url(#paint5_radial_6_564)"/>
<g id="Vector 22">
<path d="M1369.82 1498.15L1375.96 1477.9C1377.76 1471.96 1385.83 1471.13 1388.8 1476.58L1398.29 1493.97C1423.22 1539.7 1429.34 1593.34 1415.34 1643.5L1406.51 1675.11C1404.7 1681.59 1395.69 1682.04 1393.25 1675.78L1374.94 1628.88C1358.62 1587.11 1356.82 1541.07 1369.82 1498.15Z" fill="#D9D9D9"/>
<path d="M1369.82 1498.15L1375.96 1477.9C1377.76 1471.96 1385.83 1471.13 1388.8 1476.58L1398.29 1493.97C1423.22 1539.7 1429.34 1593.34 1415.34 1643.5L1406.51 1675.11C1404.7 1681.59 1395.69 1682.04 1393.25 1675.78L1374.94 1628.88C1358.62 1587.11 1356.82 1541.07 1369.82 1498.15Z" fill="url(#paint6_radial_6_564)"/>
</g>
<g id="Vector 23">
<path d="M1579.43 1485.26L1585.56 1465.01C1587.36 1459.07 1595.43 1458.24 1598.41 1463.69L1607.89 1481.09C1632.83 1526.81 1638.94 1580.45 1624.94 1630.61L1616.12 1662.23C1614.31 1668.7 1605.3 1669.15 1602.85 1662.89L1584.54 1615.99C1568.23 1574.22 1566.43 1528.18 1579.43 1485.26Z" fill="#D9D9D9"/>
<path d="M1579.43 1485.26L1585.56 1465.01C1587.36 1459.07 1595.43 1458.24 1598.41 1463.69L1607.89 1481.09C1632.83 1526.81 1638.94 1580.45 1624.94 1630.61L1616.12 1662.23C1614.31 1668.7 1605.3 1669.15 1602.85 1662.89L1584.54 1615.99C1568.23 1574.22 1566.43 1528.18 1579.43 1485.26Z" fill="url(#paint7_radial_6_564)"/>
</g>
<g id="Vector 24">
<path d="M872.702 1772.17L878.836 1751.92C880.636 1745.98 888.708 1745.15 891.681 1750.6L901.168 1768C926.101 1813.72 932.216 1867.36 918.214 1917.52L909.39 1949.13C907.582 1955.61 898.573 1956.06 896.127 1949.8L877.814 1902.9C861.501 1861.13 859.701 1815.09 872.702 1772.17Z" fill="#D9D9D9"/>
<path d="M872.702 1772.17L878.836 1751.92C880.636 1745.98 888.708 1745.15 891.681 1750.6L901.168 1768C926.101 1813.72 932.216 1867.36 918.214 1917.52L909.39 1949.13C907.582 1955.61 898.573 1956.06 896.127 1949.8L877.814 1902.9C861.501 1861.13 859.701 1815.09 872.702 1772.17Z" fill="url(#paint8_radial_6_564)"/>
</g>
<g id="Vector 25">
<path d="M1066.34 1760.27L1072.47 1740.02C1074.27 1734.07 1082.34 1733.24 1085.32 1738.69L1094.8 1756.09C1119.74 1801.81 1125.85 1855.46 1111.85 1905.62L1103.02 1937.23C1101.22 1943.71 1092.21 1944.16 1089.76 1937.89L1071.45 1891C1055.14 1849.23 1053.34 1803.18 1066.34 1760.27Z" fill="#D9D9D9"/>
<path d="M1066.34 1760.27L1072.47 1740.02C1074.27 1734.07 1082.34 1733.24 1085.32 1738.69L1094.8 1756.09C1119.74 1801.81 1125.85 1855.46 1111.85 1905.62L1103.02 1937.23C1101.22 1943.71 1092.21 1944.16 1089.76 1937.89L1071.45 1891C1055.14 1849.23 1053.34 1803.18 1066.34 1760.27Z" fill="url(#paint9_radial_6_564)"/>
</g>
<g id="Vector 26">
<path d="M1301.69 1758.82L1307.82 1738.57C1309.63 1732.63 1317.7 1731.8 1320.67 1737.25L1330.16 1754.65C1355.09 1800.37 1361.21 1854.01 1347.2 1904.17L1338.38 1935.79C1336.57 1942.26 1327.56 1942.71 1325.12 1936.45L1306.8 1889.55C1290.49 1847.78 1288.69 1801.74 1301.69 1758.82Z" fill="#D9D9D9"/>
<path d="M1301.69 1758.82L1307.82 1738.57C1309.63 1732.63 1317.7 1731.8 1320.67 1737.25L1330.16 1754.65C1355.09 1800.37 1361.21 1854.01 1347.2 1904.17L1338.38 1935.79C1336.57 1942.26 1327.56 1942.71 1325.12 1936.45L1306.8 1889.55C1290.49 1847.78 1288.69 1801.74 1301.69 1758.82Z" fill="url(#paint10_radial_6_564)"/>
</g>
<g id="Vector 27">
<path d="M1505.51 1733.27L1511.64 1713.02C1513.44 1707.07 1521.51 1706.24 1524.49 1711.69L1533.97 1729.09C1558.91 1774.81 1565.02 1828.46 1551.02 1878.62L1542.2 1910.23C1540.39 1916.71 1531.38 1917.16 1528.93 1910.89L1510.62 1864C1494.31 1822.23 1492.51 1776.18 1505.51 1733.27Z" fill="#D9D9D9"/>
<path d="M1505.51 1733.27L1511.64 1713.02C1513.44 1707.07 1521.51 1706.24 1524.49 1711.69L1533.97 1729.09C1558.91 1774.81 1565.02 1828.46 1551.02 1878.62L1542.2 1910.23C1540.39 1916.71 1531.38 1917.16 1528.93 1910.89L1510.62 1864C1494.31 1822.23 1492.51 1776.18 1505.51 1733.27Z" fill="url(#paint11_radial_6_564)"/>
</g>
<g id="Vector 34">
<path d="M1032.8 2045.86L1038.93 2025.61C1040.73 2019.67 1048.8 2018.84 1051.78 2024.29L1061.26 2041.69C1086.2 2087.41 1092.31 2141.05 1078.31 2191.21L1069.49 2222.83C1067.68 2229.3 1058.67 2229.75 1056.22 2223.49L1037.91 2176.59C1021.6 2134.82 1019.8 2088.78 1032.8 2045.86Z" fill="#D9D9D9"/>
<path d="M1032.8 2045.86L1038.93 2025.61C1040.73 2019.67 1048.8 2018.84 1051.78 2024.29L1061.26 2041.69C1086.2 2087.41 1092.31 2141.05 1078.31 2191.21L1069.49 2222.83C1067.68 2229.3 1058.67 2229.75 1056.22 2223.49L1037.91 2176.59C1021.6 2134.82 1019.8 2088.78 1032.8 2045.86Z" fill="url(#paint12_radial_6_564)"/>
</g>
<g id="Vector 35">
<path d="M1226.43 2033.96L1232.57 2013.71C1234.37 2007.76 1242.44 2006.93 1245.41 2012.39L1254.9 2029.78C1279.83 2075.5 1285.95 2129.15 1271.94 2179.31L1263.12 2210.92C1261.31 2217.4 1252.3 2217.85 1249.86 2211.59L1231.54 2164.69C1215.23 2122.92 1213.43 2076.88 1226.43 2033.96Z" fill="#D9D9D9"/>
<path d="M1226.43 2033.96L1232.57 2013.71C1234.37 2007.76 1242.44 2006.93 1245.41 2012.39L1254.9 2029.78C1279.83 2075.5 1285.95 2129.15 1271.94 2179.31L1263.12 2210.92C1261.31 2217.4 1252.3 2217.85 1249.86 2211.59L1231.54 2164.69C1215.23 2122.92 1213.43 2076.88 1226.43 2033.96Z" fill="url(#paint13_radial_6_564)"/>
</g>
<g id="Vector 36">
<path d="M1461.79 2032.51L1467.92 2012.26C1469.72 2006.32 1477.79 2005.49 1480.77 2010.94L1490.25 2028.34C1515.19 2074.06 1521.3 2127.7 1507.3 2177.86L1498.48 2209.48C1496.67 2215.95 1487.66 2216.4 1485.21 2210.14L1466.9 2163.24C1450.59 2121.47 1448.79 2075.43 1461.79 2032.51Z" fill="#D9D9D9"/>
<path d="M1461.79 2032.51L1467.92 2012.26C1469.72 2006.32 1477.79 2005.49 1480.77 2010.94L1490.25 2028.34C1515.19 2074.06 1521.3 2127.7 1507.3 2177.86L1498.48 2209.48C1496.67 2215.95 1487.66 2216.4 1485.21 2210.14L1466.9 2163.24C1450.59 2121.47 1448.79 2075.43 1461.79 2032.51Z" fill="url(#paint14_radial_6_564)"/>
</g>
<g id="Vector 28">
<path d="M1806.57 290.659L1982.56 218.818C1988 216.595 1993.6 221.671 1991.91 227.306L1935.58 415.527C1918.7 471.919 1877.84 518.013 1823.88 541.529L1599.33 639.387C1593.43 641.96 1587.48 635.867 1590.19 630.025L1700.72 391.684C1721.97 345.847 1759.79 309.755 1806.57 290.659Z" fill="#D9D9D9"/>
<path d="M1806.57 290.659L1982.56 218.818C1988 216.595 1993.6 221.671 1991.91 227.306L1935.58 415.527C1918.7 471.919 1877.84 518.013 1823.88 541.529L1599.33 639.387C1593.43 641.96 1587.48 635.867 1590.19 630.025L1700.72 391.684C1721.97 345.847 1759.79 309.755 1806.57 290.659Z" fill="url(#paint15_radial_6_564)"/>
</g>
<g id="Vector 30">
<path d="M1953.38 476.442L2140.69 444.086C2146.49 443.085 2150.86 449.244 2148 454.385L2052.55 626.11C2023.95 677.559 1974.14 713.799 1916.39 725.173L1676.06 772.507C1669.74 773.752 1665.24 766.523 1669.14 761.399L1828.29 552.368C1858.9 512.168 1903.59 485.042 1953.38 476.442Z" fill="#D9D9D9"/>
<path d="M1953.38 476.442L2140.69 444.086C2146.49 443.085 2150.86 449.244 2148 454.385L2052.55 626.11C2023.95 677.559 1974.14 713.799 1916.39 725.173L1676.06 772.507C1669.74 773.752 1665.24 766.523 1669.14 761.399L1828.29 552.368C1858.9 512.168 1903.59 485.042 1953.38 476.442Z" fill="url(#paint16_radial_6_564)"/>
</g>
<g id="Vector 29">
<path d="M1528.29 142.425L1657.38 2.88904C1661.37 -1.42818 1668.59 0.806061 1669.44 6.62491L1698.01 201.007C1706.56 259.245 1689.03 318.296 1650.08 362.429L1488 546.076C1483.74 550.905 1475.77 547.902 1475.75 541.461L1475.1 278.739C1474.98 228.214 1493.98 179.513 1528.29 142.425Z" fill="#D9D9D9"/>
<path d="M1528.29 142.425L1657.38 2.88904C1661.37 -1.42818 1668.59 0.806061 1669.44 6.62491L1698.01 201.007C1706.56 259.245 1689.03 318.296 1650.08 362.429L1488 546.076C1483.74 550.905 1475.77 547.902 1475.75 541.461L1475.1 278.739C1474.98 228.214 1493.98 179.513 1528.29 142.425Z" fill="url(#paint17_radial_6_564)"/>
</g>
<g id="Vector 31">
<path d="M366.2 412.933L163.762 370.028C157.788 368.762 152.85 374.224 155.44 379.233L245.558 553.54C272.203 605.077 323.095 643.273 384.207 657.601L643.164 718.312C649.68 719.84 654.829 713.368 651.131 708.299L494.71 493.89C464.955 453.104 418.929 424.109 366.2 412.933Z" fill="#D9D9D9"/>
<path d="M366.2 412.933L163.762 370.028C157.788 368.762 152.85 374.224 155.44 379.233L245.558 553.54C272.203 605.077 323.095 643.273 384.207 657.601L643.164 718.312C649.68 719.84 654.829 713.368 651.131 708.299L494.71 493.89C464.955 453.104 418.929 424.109 366.2 412.933Z" fill="url(#paint18_radial_6_564)"/>
</g>
<g id="Vector 32">
<path d="M219.803 681.263L10.1869 725.296C4.07095 726.581 1.87219 733.906 6.57122 737.341L176.134 861.302C220.472 893.716 278.806 905.993 336.7 895.097L607.524 844.122C614.217 842.862 616.186 834.558 610.506 831.545L362.244 699.849C320.024 677.452 269.392 670.846 219.803 681.263Z" fill="#D9D9D9"/>
<path d="M219.803 681.263L10.1869 725.296C4.07095 726.581 1.87219 733.906 6.57122 737.341L176.134 861.302C220.472 893.716 278.806 905.993 336.7 895.097L607.524 844.122C614.217 842.862 616.186 834.558 610.506 831.545L362.244 699.849C320.024 677.452 269.392 670.846 219.803 681.263Z" fill="url(#paint19_radial_6_564)"/>
</g>
<g id="Vector 33">
<path d="M588.75 198.35L431.611 86.2015C426.904 82.8422 420.457 85.8313 420.441 91.3803L419.915 275.497C419.735 338.366 450.632 398.784 503.044 438.051L701.433 586.686C706.543 590.515 713.626 586.637 712.661 580.539L673.529 333.247C665.054 279.696 634.412 230.939 588.75 198.35Z" fill="#D9D9D9"/>
<path d="M588.75 198.35L431.611 86.2015C426.904 82.8422 420.457 85.8313 420.441 91.3803L419.915 275.497C419.735 338.366 450.632 398.784 503.044 438.051L701.433 586.686C706.543 590.515 713.626 586.637 712.661 580.539L673.529 333.247C665.054 279.696 634.412 230.939 588.75 198.35Z" fill="url(#paint20_radial_6_564)"/>
</g>
</g>
<g id="Mouth">
<path id="Mouth bg" d="M1207.42 1084.72L1102.31 1086.18L998.273 1054.89L984.579 1045.32L1018.61 1101.84L1088.23 1158.68L1235.64 1152.62L1303.35 1088.85L1319.42 1024.24L1278.89 1065.8L1207.42 1084.72Z" fill="black"/>
<path id="Teeth" d="M1015.39 1082L981.808 1040.99L1318.49 1017.28L1319.42 1024.24L1314.44 1041.08L1288.37 1065.22C1288.37 1065.22 1211.18 1090.24 1159.91 1094.16C1103.43 1098.47 1015.39 1082 1015.39 1082Z" fill="url(#paint21_linear_6_564)"/>
<path id="Mouth Lower Beak" d="M1059.46 1184.47C1024.39 1170.3 995.158 1062.66 983.826 1046.18C978.184 1037.97 1074.36 1134.39 1161.06 1129.15C1248.48 1123.87 1325.78 1013.73 1321.29 1022.12C1312.35 1038.84 1301.51 1146.41 1269 1171.58C1251.95 1184.78 1223.58 1195.48 1198.82 1203.02C1167.18 1212.64 1133.43 1210.59 1102.1 1199.97C1087.36 1194.97 1071.78 1189.44 1059.46 1184.47Z" fill="url(#paint22_linear_6_564)"/>
<path id="Mouth Upper Beak" d="M1314.39 1028.5L1156.9 1073.8L989.22 1048.46C979.918 1047.05 976.519 1035.36 983.604 1029.17C1002.38 1012.78 1032.15 986.489 1055.15 964.862C1073.93 947.199 1116.29 930.331 1136.39 922.968C1143.56 920.345 1151.3 919.968 1158.69 921.881C1178.78 927.086 1220.45 939.079 1240.05 953.494C1267.75 973.868 1298.4 995.4 1317.63 1008.78C1325.27 1014.09 1323.33 1025.93 1314.39 1028.5Z" fill="url(#paint23_linear_6_564)"/>
</g>
<g id="Eyes">
<g id="Eye Left">
<path d="M1040.41 796.429C1047.16 906.127 1016.3 982.76 838.721 970.634C673.523 1021.37 639.924 931.163 633.18 821.465C626.436 711.768 714.033 648.177 826.487 641.264C938.941 634.35 1033.67 686.732 1040.41 796.429Z" fill="url(#paint24_linear_6_564)"/>
<path d="M939.524 817.66C943.116 876.092 897.096 926.468 836.735 930.179C776.374 933.89 724.529 889.53 720.937 831.098C717.344 772.666 763.365 722.29 823.726 718.579C884.087 714.868 935.932 759.228 939.524 817.66Z" fill="url(#paint25_linear_6_564)"/>
</g>
<g id="Eye Right">
<path d="M1203.55 777.383C1210.29 887.08 1250.3 959.357 1425.06 925.569C1595.23 955.684 1617.53 862.044 1610.78 752.347C1604.04 642.649 1509.31 590.268 1396.86 597.181C1284.4 604.095 1196.81 667.685 1203.55 777.383Z" fill="url(#paint26_linear_6_564)"/>
<path d="M1306.28 786.095C1309.87 844.527 1361.72 888.887 1422.08 885.176C1482.44 881.465 1528.46 831.089 1524.87 772.657C1521.27 714.225 1469.43 669.865 1409.07 673.576C1348.71 677.287 1302.69 727.663 1306.28 786.095Z" fill="url(#paint27_linear_6_564)"/>
</g>
<g id="Pupil Right">
<ellipse cx="830.23" cy="824.379" rx="109.5" ry="106" transform="rotate(-3.51804 830.23 824.379)" fill="url(#paint28_linear_6_564)"/>
<ellipse cx="830.23" cy="824.379" rx="109.5" ry="106" transform="rotate(-3.51804 830.23 824.379)" fill="url(#paint29_linear_6_564)"/>
</g>
<g id="Pupil Left">
<ellipse cx="1407.22" cy="773.878" rx="109.5" ry="106" transform="rotate(-3.51804 1407.22 773.878)" fill="url(#paint30_linear_6_564)"/>
<ellipse cx="1407.22" cy="773.878" rx="109.5" ry="106" transform="rotate(-3.51804 1407.22 773.878)" fill="url(#paint31_linear_6_564)"/>
</g>
</g>
</g>
</g>
<defs>
<filter id="filter0_d_6_564" x="0.0372314" y="0.635254" width="2152.86" height="2590.81" filterUnits="userSpaceOnUse" color-interpolation-filters="sRGB">
<feFlood flood-opacity="0" result="BackgroundImageFix"/>
<feColorMatrix in="SourceAlpha" type="matrix" values="0 0 0 0 0 0 0 0 0 0 0 0 0 0 0 0 0 0 127 0" result="hardAlpha"/>
<feOffset dy="4"/>
<feGaussianBlur stdDeviation="2"/>
<feComposite in2="hardAlpha" operator="out"/>
<feColorMatrix type="matrix" values="0 0 0 0 0 0 0 0 0 0 0 0 0 0 0 0 0 0 0.25 0"/>
<feBlend mode="normal" in2="BackgroundImageFix" result="effect1_dropShadow_6_564"/>
<feBlend mode="normal" in="SourceGraphic" in2="effect1_dropShadow_6_564" result="shape"/>
</filter>
<radialGradient id="paint0_radial_6_564" cx="0" cy="0" r="1" gradientUnits="userSpaceOnUse" gradientTransform="translate(352.093 1096.87) rotate(86.482) scale(1724.1 263.683)">
<stop stop-color="#CE8A5A"/>
<stop offset="0.552885" stop-color="#9F6033"/>
<stop offset="1" stop-color="#341804"/>
</radialGradient>
<radialGradient id="paint1_radial_6_564" cx="0" cy="0" r="1" gradientUnits="userSpaceOnUse" gradientTransform="translate(1189.25 186.372) rotate(90) scale(2607 980.826)">
<stop stop-color="#CE8A5A"/>
<stop offset="0.552885" stop-color="#9F6033"/>
<stop offset="1" stop-color="#341804"/>
</radialGradient>
<radialGradient id="paint2_radial_6_564" cx="0" cy="0" r="1" gradientUnits="userSpaceOnUse" gradientTransform="translate(1189.25 186.372) rotate(90) scale(2607 980.826)">
<stop stop-color="#CE8A5A"/>
<stop offset="0.552885" stop-color="#9F6033"/>
<stop offset="1" stop-color="#341804"/>
</radialGradient>
<radialGradient id="paint3_radial_6_564" cx="0" cy="0" r="1" gradientUnits="userSpaceOnUse" gradientTransform="translate(984.037 1602.74) rotate(77.4569) scale(116.094 42.57)">
<stop stop-color="#DBA076"/>
<stop offset="0.5" stop-color="#A7673A"/>
<stop offset="1" stop-color="#3B1D07"/>
</radialGradient>
<radialGradient id="paint4_radial_6_564" cx="0" cy="0" r="1" gradientUnits="userSpaceOnUse" gradientTransform="translate(1187.45 1603.26) rotate(77.4569) scale(116.094 42.57)">
<stop stop-color="#DBA076"/>
<stop offset="0.5" stop-color="#A7673A"/>
<stop offset="1" stop-color="#3B1D07"/>
</radialGradient>
<radialGradient id="paint5_radial_6_564" cx="0" cy="0" r="1" gradientUnits="userSpaceOnUse" gradientTransform="translate(743.291 1630.57) rotate(77.4569) scale(116.094 42.57)">
<stop stop-color="#DBA076"/>
<stop offset="0.5" stop-color="#A7673A"/>
<stop offset="1" stop-color="#3B1D07"/>
</radialGradient>
<radialGradient id="paint6_radial_6_564" cx="0" cy="0" r="1" gradientUnits="userSpaceOnUse" gradientTransform="translate(1396.26 1577.4) rotate(77.4569) scale(116.094 42.57)">
<stop stop-color="#DBA076"/>
<stop offset="0.5" stop-color="#A7673A"/>
<stop offset="1" stop-color="#3B1D07"/>
</radialGradient>
<radialGradient id="paint7_radial_6_564" cx="0" cy="0" r="1" gradientUnits="userSpaceOnUse" gradientTransform="translate(1605.86 1564.51) rotate(77.4569) scale(116.094 42.57)">
<stop stop-color="#DBA076"/>
<stop offset="0.5" stop-color="#A7673A"/>
<stop offset="1" stop-color="#3B1D07"/>
</radialGradient>
<radialGradient id="paint8_radial_6_564" cx="0" cy="0" r="1" gradientUnits="userSpaceOnUse" gradientTransform="translate(899.137 1851.42) rotate(77.4569) scale(116.094 42.57)">
<stop stop-color="#DBA076"/>
<stop offset="0.5" stop-color="#A7673A"/>
<stop offset="1" stop-color="#3B1D07"/>
</radialGradient>
<radialGradient id="paint9_radial_6_564" cx="0" cy="0" r="1" gradientUnits="userSpaceOnUse" gradientTransform="translate(1092.77 1839.52) rotate(77.4569) scale(116.094 42.57)">
<stop stop-color="#DBA076"/>
<stop offset="0.5" stop-color="#A7673A"/>
<stop offset="1" stop-color="#3B1D07"/>
</radialGradient>
<radialGradient id="paint10_radial_6_564" cx="0" cy="0" r="1" gradientUnits="userSpaceOnUse" gradientTransform="translate(1328.13 1838.07) rotate(77.4569) scale(116.094 42.57)">
<stop stop-color="#DBA076"/>
<stop offset="0.5" stop-color="#A7673A"/>
<stop offset="1" stop-color="#3B1D07"/>
</radialGradient>
<radialGradient id="paint11_radial_6_564" cx="0" cy="0" r="1" gradientUnits="userSpaceOnUse" gradientTransform="translate(1531.94 1812.52) rotate(77.4569) scale(116.094 42.57)">
<stop stop-color="#DBA076"/>
<stop offset="0.5" stop-color="#A7673A"/>
<stop offset="1" stop-color="#3B1D07"/>
</radialGradient>
<radialGradient id="paint12_radial_6_564" cx="0" cy="0" r="1" gradientUnits="userSpaceOnUse" gradientTransform="translate(1059.23 2125.11) rotate(77.4569) scale(116.094 42.57)">
<stop stop-color="#DBA076"/>
<stop offset="0.5" stop-color="#A7673A"/>
<stop offset="1" stop-color="#3B1D07"/>
</radialGradient>
<radialGradient id="paint13_radial_6_564" cx="0" cy="0" r="1" gradientUnits="userSpaceOnUse" gradientTransform="translate(1252.87 2113.21) rotate(77.4569) scale(116.094 42.57)">
<stop stop-color="#DBA076"/>
<stop offset="0.5" stop-color="#A7673A"/>
<stop offset="1" stop-color="#3B1D07"/>
</radialGradient>
<radialGradient id="paint14_radial_6_564" cx="0" cy="0" r="1" gradientUnits="userSpaceOnUse" gradientTransform="translate(1488.22 2111.76) rotate(77.4569) scale(116.094 42.57)">
<stop stop-color="#DBA076"/>
<stop offset="0.5" stop-color="#A7673A"/>
<stop offset="1" stop-color="#3B1D07"/>
</radialGradient>
<radialGradient id="paint15_radial_6_564" cx="0" cy="0" r="1" gradientUnits="userSpaceOnUse" gradientTransform="translate(1802.58 439.32) rotate(124.932) scale(296.122 124.511)">
<stop stop-color="#DBA076"/>
<stop offset="0.5" stop-color="#A7673A"/>
<stop offset="1" stop-color="#3B1D07"/>
</radialGradient>
<radialGradient id="paint16_radial_6_564" cx="0" cy="0" r="1" gradientUnits="userSpaceOnUse" gradientTransform="translate(1917.54 620.776) rotate(137.337) scale(296.122 124.511)">
<stop stop-color="#DBA076"/>
<stop offset="0.5" stop-color="#A7673A"/>
<stop offset="1" stop-color="#3B1D07"/>
</radialGradient>
<radialGradient id="paint17_radial_6_564" cx="0" cy="0" r="1" gradientUnits="userSpaceOnUse" gradientTransform="translate(1587.55 278.82) rotate(99.9101) scale(296.121 124.511)">
<stop stop-color="#DBA076"/>
<stop offset="0.5" stop-color="#A7673A"/>
<stop offset="1" stop-color="#3B1D07"/>
</radialGradient>
<radialGradient id="paint18_radial_6_564" cx="0" cy="0" r="1" gradientTransform="matrix(220.046 208.71 99.1511 -84.4754 392.396 555.791)" gradientUnits="userSpaceOnUse">
<stop stop-color="#DBA076"/>
<stop offset="0.5" stop-color="#A7673A"/>
<stop offset="1" stop-color="#3B1D07"/>
</radialGradient>
<radialGradient id="paint19_radial_6_564" cx="0" cy="0" r="1" gradientTransform="matrix(297.723 97.9861 50.9246 -115.182 304.26 799.518)" gradientUnits="userSpaceOnUse">
<stop stop-color="#DBA076"/>
<stop offset="0.5" stop-color="#A7673A"/>
<stop offset="1" stop-color="#3B1D07"/>
</radialGradient>
<radialGradient id="paint20_radial_6_564" cx="0" cy="0" r="1" gradientTransform="matrix(100.326 273.892 128.887 -39.6813 551.065 342.832)" gradientUnits="userSpaceOnUse">
<stop stop-color="#DBA076"/>
<stop offset="0.5" stop-color="#A7673A"/>
<stop offset="1" stop-color="#3B1D07"/>
</radialGradient>
<linearGradient id="paint21_linear_6_564" x1="1139.19" y1="854.978" x2="1172.37" y2="1288.76" gradientUnits="userSpaceOnUse">
<stop stop-color="#737373"/>
<stop offset="0.630112" stop-color="#D9D9D9"/>
</linearGradient>
<linearGradient id="paint22_linear_6_564" x1="1149.69" y1="1107.31" x2="1157.82" y2="1215.01" gradientUnits="userSpaceOnUse">
<stop stop-color="#6D7B1A"/>
<stop offset="1" stop-color="#9BB022"/>
</linearGradient>
<linearGradient id="paint23_linear_6_564" x1="1144.15" y1="919.295" x2="1153.66" y2="1074" gradientUnits="userSpaceOnUse">
<stop stop-color="#DEFF25"/>
<stop offset="1" stop-color="#849621"/>
</linearGradient>
<linearGradient id="paint24_linear_6_564" x1="787.844" y1="1039.39" x2="820.581" y2="635.2" gradientUnits="userSpaceOnUse">
<stop stop-color="#994000"/>
<stop offset="0.364749" stop-color="#CC5500"/>
<stop offset="0.55384" stop-color="#DB762D"/>
<stop offset="1" stop-color="#FFC499"/>
</linearGradient>
<linearGradient id="paint25_linear_6_564" x1="787.844" y1="1039.39" x2="820.581" y2="635.2" gradientUnits="userSpaceOnUse">
<stop stop-color="#994000"/>
<stop offset="0.364749" stop-color="#CC5500"/>
<stop offset="0.55384" stop-color="#DB762D"/>
<stop offset="1" stop-color="#FFC499"/>
</linearGradient>
<linearGradient id="paint26_linear_6_564" x1="1483.98" y1="987.571" x2="1401.98" y2="590.44" gradientUnits="userSpaceOnUse">
<stop stop-color="#994000"/>
<stop offset="0.364749" stop-color="#CC5500"/>
<stop offset="0.55384" stop-color="#DB762D"/>
<stop offset="1" stop-color="#FFC499"/>
</linearGradient>
<linearGradient id="paint27_linear_6_564" x1="1483.98" y1="987.571" x2="1401.98" y2="590.44" gradientUnits="userSpaceOnUse">
<stop stop-color="#994000"/>
<stop offset="0.364749" stop-color="#CC5500"/>
<stop offset="0.55384" stop-color="#DB762D"/>
<stop offset="1" stop-color="#FFC499"/>
</linearGradient>
<linearGradient id="paint28_linear_6_564" x1="830.23" y1="718.379" x2="830.23" y2="930.379" gradientUnits="userSpaceOnUse">
<stop stop-color="#666666"/>
<stop offset="1"/>
</linearGradient>
<linearGradient id="paint29_linear_6_564" x1="829.261" y1="446.466" x2="847.678" y2="823.552" gradientUnits="userSpaceOnUse">
<stop stop-color="#666666"/>
<stop offset="1"/>
</linearGradient>
<linearGradient id="paint30_linear_6_564" x1="1407.22" y1="667.878" x2="1407.22" y2="879.878" gradientUnits="userSpaceOnUse">
<stop stop-color="#666666"/>
<stop offset="1"/>
</linearGradient>
<linearGradient id="paint31_linear_6_564" x1="1406.25" y1="395.965" x2="1424.67" y2="773.051" gradientUnits="userSpaceOnUse">
<stop stop-color="#666666"/>
<stop offset="1"/>
</linearGradient>
</defs>
</svg>
